<svg xmlns="http://www.w3.org/2000/svg" width="10" height="12" viewBox="0 0 10 12" fill="none">
<path d="M8.08 12C7.84 12 7.61333 11.9333 7.4 11.8L4.8 10.16C4.72 10.1067 4.64 10.1067 4.56 10.16L1.96 11.8C1.72 11.96 1.45333 12.02 1.16 11.98C0.866667 11.94 0.613333 11.8267 0.4 11.64C0.133333 11.4 0 11.0933 0 10.72V1.28C0 0.933333 0.126667 0.633333 0.38 0.38C0.633333 0.126667 0.933333 0 1.28 0H8.08C8.42667 0 8.72667 0.126667 8.98 0.38C9.23333 0.633333 9.36 0.933333 9.36 1.28V10.72C9.36 11.0667 9.23333 11.3667 8.98 11.62C8.72667 11.8733 8.42667 12 8.08 12Z" fill="#0036ff"/>
</svg>